{
	"asset":{
		"generator":"Khronos glTF Blender I/O v3.6.28",
		"version":"2.0"
	},
	"scene":0,
	"scenes":[
		{
			"name":"Scene",
			"nodes":[
				0,
				1,
				2,
				3,
				4,
				5,
				6,
				7,
				8,
				9,
				10,
				11
			]
		}
	],
	"nodes":[
		{
			"mesh":0,
			"name":"Plane.005",
			"scale":[
				0.509447455406189,
				0.509447455406189,
				0.509447455406189
			],
			"translation":[
				0,
				1.913788080215454,
				-3.4703330993652344
			]
		},
		{
			"mesh":1,
			"name":"Cylinder",
			"scale":[
				0.509447455406189,
				0.509447455406189,
				0.509447455406189
			],
			"translation":[
				0,
				2.3386270999908447,
				-3.4703330993652344
			]
		},
		{
			"mesh":2,
			"name":"Plane.007",
			"rotation":[
				0.7071068286895752,
				0,
				0,
				0.7071068286895752
			],
			"scale":[
				0.5949741005897522,
				0.6516551971435547,
				0.6516551971435547
			],
			"translation":[
				0,
				2.7144358158111572,
				-3.517035484313965
			]
		},
		{
			"mesh":3,
			"name":"Plane.009",
			"scale":[
				0.16096001863479614,
				0.16096001863479614,
				0.16096001863479614
			],
			"translation":[
				0.0038554519414901733,
				1.9269393682479858,
				-2.425675868988037
			]
		},
		{
			"mesh":4,
			"name":"Plane.010",
			"rotation":[
				0.04545021057128906,
				0,
				0,
				0.998966634273529
			],
			"scale":[
				0.09379395097494125,
				0.11973702907562256,
				0.09403915703296661
			],
			"translation":[
				0.011308811604976654,
				1.954736590385437,
				-2.4064407348632812
			]
		},
		{
			"mesh":5,
			"name":"Cylinder.001",
			"rotation":[
				0,
				0.19493554532527924,
				0,
				0.9808160662651062
			],
			"translation":[
				-1.3199639320373535,
				-0.7569553852081299,
				-3.2861244678497314
			]
		},
		{
			"mesh":6,
			"name":"Sphere",
			"rotation":[
				0,
				0.19493554532527924,
				0,
				0.9808160662651062
			],
			"translation":[
				-1.3199639320373535,
				2.4741299152374268,
				-3.2861244678497314
			]
		},
		{
			"mesh":7,
			"name":"Cube.001",
			"translation":[
				1.8614521026611328,
				3.2391090393066406,
				-4.707240104675293
			]
		},
		{
			"mesh":8,
			"name":"Plane.004",
			"rotation":[
				0.7071068286895752,
				0,
				0,
				0.7071068286895752
			],
			"translation":[
				1.8614521026611328,
				3.94231915473938,
				-4.35123348236084
			]
		},
		{
			"mesh":9,
			"name":"Plane.008",
			"translation":[
				1.8614521026611328,
				2.0951242446899414,
				-4.1787519454956055
			]
		},
		{
			"mesh":10,
			"name":"Plane.006",
			"translation":[
				0,
				1.6013474464416504,
				-2.968687057495117
			]
		},
		{
			"mesh":11,
			"name":"trackpad",
			"translation":[
				0,
				2.1282668113708496,
				-2.5014002323150635
			]
		}
	],
	"materials":[
		{
			"doubleSided":true,
			"name":"Screen",
			"pbrMetallicRoughness":{
				"baseColorFactor":[
					0.07323545962572098,
					0.07323545962572098,
					0.07323545962572098,
					1
				],
				"metallicFactor":0
			}
		},
		{
			"doubleSided":true,
			"name":"Material.001",
			"pbrMetallicRoughness":{
				"baseColorFactor":[
					0.13745003938674927,
					0.28828665614128113,
					0.1053442731499672,
					1
				],
				"metallicFactor":0,
				"roughnessFactor":0.5
			}
		},
		{
			"doubleSided":true,
			"name":"Material.003",
			"pbrMetallicRoughness":{
				"baseColorFactor":[
					0.800000011920929,
					0.800000011920929,
					0.800000011920929,
					1
				],
				"metallicFactor":0,
				"roughnessFactor":0.5
			}
		},
		{
			"doubleSided":true,
			"name":"Material.004",
			"pbrMetallicRoughness":{
				"baseColorFactor":[
					0.3458402156829834,
					0.8000000715255737,
					0.10802294313907623,
					1
				],
				"metallicFactor":0,
				"roughnessFactor":0.5
			}
		},
		{
			"doubleSided":true,
			"name":"pot",
			"pbrMetallicRoughness":{
				"baseColorFactor":[
					0.8000000715255737,
					0.24140378832817078,
					0.20840668678283691,
					1
				],
				"metallicFactor":0
			}
		},
		{
			"doubleSided":true,
			"name":"Plant",
			"pbrMetallicRoughness":{
				"baseColorFactor":[
					0.04079262539744377,
					0.13757699728012085,
					0.04541326314210892,
					1
				],
				"metallicFactor":0,
				"roughnessFactor":0.5
			}
		},
		{
			"doubleSided":true,
			"name":"desk",
			"pbrMetallicRoughness":{
				"baseColorFactor":[
					0.6859570741653442,
					0.4770925045013428,
					0.3417556881904602,
					1
				],
				"metallicFactor":0
			}
		},
		{
			"doubleSided":true,
			"name":"Wall",
			"pbrMetallicRoughness":{
				"baseColorFactor":[
					0.6190295815467834,
					0.7770873308181763,
					0.8000000715255737,
					1
				],
				"metallicFactor":0
			}
		}
	],
	"meshes":[
		{
			"name":"Plane.126",
			"primitives":[
				{
					"attributes":{
						"POSITION":0,
						"NORMAL":1,
						"TEXCOORD_0":2
					},
					"indices":3,
					"material":0
				}
			]
		},
		{
			"name":"Cylinder.002",
			"primitives":[
				{
					"attributes":{
						"POSITION":4,
						"NORMAL":5,
						"TEXCOORD_0":6
					},
					"indices":7,
					"material":0
				}
			]
		},
		{
			"name":"Plane.127",
			"primitives":[
				{
					"attributes":{
						"POSITION":8,
						"NORMAL":9,
						"TEXCOORD_0":10
					},
					"indices":11,
					"material":0
				}
			]
		},
		{
			"name":"Plane.006",
			"primitives":[
				{
					"attributes":{
						"POSITION":12,
						"NORMAL":13,
						"TEXCOORD_0":14
					},
					"indices":15,
					"material":1
				}
			]
		},
		{
			"name":"Plane.007",
			"primitives":[
				{
					"attributes":{
						"POSITION":16,
						"NORMAL":17,
						"TEXCOORD_0":18
					},
					"indices":19,
					"material":2
				},
				{
					"attributes":{
						"POSITION":20,
						"NORMAL":21,
						"TEXCOORD_0":22
					},
					"indices":23,
					"material":3
				}
			]
		},
		{
			"name":"Cylinder",
			"primitives":[
				{
					"attributes":{
						"POSITION":24,
						"NORMAL":25,
						"TEXCOORD_0":26
					},
					"indices":27,
					"material":4
				}
			]
		},
		{
			"name":"Sphere.001",
			"primitives":[
				{
					"attributes":{
						"POSITION":28,
						"NORMAL":29,
						"TEXCOORD_0":30
					},
					"indices":31,
					"material":5
				}
			]
		},
		{
			"name":"Cube.001",
			"primitives":[
				{
					"attributes":{
						"POSITION":32,
						"NORMAL":33,
						"TEXCOORD_0":34
					},
					"indices":35,
					"material":6
				}
			]
		},
		{
			"name":"Plane.129",
			"primitives":[
				{
					"attributes":{
						"POSITION":36,
						"NORMAL":37,
						"TEXCOORD_0":38
					},
					"indices":39,
					"material":7
				}
			]
		},
		{
			"name":"Plane.128",
			"primitives":[
				{
					"attributes":{
						"POSITION":40,
						"NORMAL":41,
						"TEXCOORD_0":42
					},
					"indices":43,
					"material":6
				}
			]
		},
		{
			"name":"Plane.046",
			"primitives":[
				{
					"attributes":{
						"POSITION":44,
						"NORMAL":45,
						"TEXCOORD_0":46
					},
					"indices":47,
					"material":6
				}
			]
		},
		{
			"name":"Plane",
			"primitives":[
				{
					"attributes":{
						"POSITION":48,
						"NORMAL":49,
						"TEXCOORD_0":50
					},
					"indices":51,
					"material":2
				}
			]
		}
	],
	"accessors":[
		{
			"bufferView":0,
			"componentType":5126,
			"count":24,
			"max":[
				0.5577432513237,
				0.1048799529671669,
				0.4442278742790222
			],
			"min":[
				-0.5577432513237,
				0,
				-0.4442278742790222
			],
			"type":"VEC3"
		},
		{
			"bufferView":1,
			"componentType":5126,
			"count":24,
			"type":"VEC3"
		},
		{
			"bufferView":2,
			"componentType":5126,
			"count":24,
			"type":"VEC2"
		},
		{
			"bufferView":3,
			"componentType":5123,
			"count":36,
			"type":"SCALAR"
		},
		{
			"bufferView":4,
			"componentType":5126,
			"count":192,
			"max":[
				0.08552226424217224,
				0.5696190595626831,
				-0.1361878216266632
			],
			"min":[
				-0.08552226424217224,
				-0.7288830280303955,
				-0.26096484065055847
			],
			"type":"VEC3"
		},
		{
			"bufferView":5,
			"componentType":5126,
			"count":192,
			"type":"VEC3"
		},
		{
			"bufferView":6,
			"componentType":5126,
			"count":192,
			"type":"VEC2"
		},
		{
			"bufferView":7,
			"componentType":5123,
			"count":372,
			"type":"SCALAR"
		},
		{
			"bufferView":8,
			"componentType":5126,
			"count":48,
			"max":[
				1.6580097675323486,
				0.036742862313985825,
				0.8976754546165466
			],
			"min":[
				-1.6580097675323486,
				-0.04379094019532204,
				-0.8367924690246582
			],
			"type":"VEC3"
		},
		{
			"bufferView":9,
			"componentType":5126,
			"count":48,
			"type":"VEC3"
		},
		{
			"bufferView":10,
			"componentType":5126,
			"count":48,
			"type":"VEC2"
		},
		{
			"bufferView":11,
			"componentType":5123,
			"count":84,
			"type":"SCALAR"
		},
		{
			"bufferView":12,
			"componentType":5126,
			"count":48,
			"max":[
				1.5969759225845337,
				0.30821678042411804,
				0.9713236093521118
			],
			"min":[
				-1.5720309019088745,
				-0.12595972418785095,
				-0.7452633380889893
			],
			"type":"VEC3"
		},
		{
			"bufferView":13,
			"componentType":5126,
			"count":48,
			"type":"VEC3"
		},
		{
			"bufferView":14,
			"componentType":5126,
			"count":48,
			"type":"VEC2"
		},
		{
			"bufferView":15,
			"componentType":5123,
			"count":84,
			"type":"SCALAR"
		},
		{
			"bufferView":16,
			"componentType":5126,
			"count":5512,
			"max":[
				2.529797077178955,
				0.1806051880121231,
				1.2555180788040161
			],
			"min":[
				-2.542940139770508,
				-0.15045277774333954,
				-1.2656625509262085
			],
			"type":"VEC3"
		},
		{
			"bufferView":17,
			"componentType":5126,
			"count":5512,
			"type":"VEC3"
		},
		{
			"bufferView":18,
			"componentType":5126,
			"count":5512,
			"type":"VEC2"
		},
		{
			"bufferView":19,
			"componentType":5123,
			"count":22152,
			"type":"SCALAR"
		},
		{
			"bufferView":20,
			"componentType":5126,
			"count":424,
			"max":[
				2.5318613052368164,
				0.1806051880121231,
				1.2555180788040161
			],
			"min":[
				-1.2671619653701782,
				-0.15045277774333954,
				-1.2656625509262085
			],
			"type":"VEC3"
		},
		{
			"bufferView":21,
			"componentType":5126,
			"count":424,
			"type":"VEC3"
		},
		{
			"bufferView":22,
			"componentType":5126,
			"count":424,
			"type":"VEC2"
		},
		{
			"bufferView":23,
			"componentType":5123,
			"count":1704,
			"type":"SCALAR"
		},
		{
			"bufferView":24,
			"componentType":5126,
			"count":776,
			"max":[
				0.19924016296863556,
				2.955646514892578,
				0.19923809170722961
			],
			"min":[
				-0.19924013316631317,
				2.6939175128936768,
				-0.19924218952655792
			],
			"type":"VEC3"
		},
		{
			"bufferView":25,
			"componentType":5126,
			"count":776,
			"type":"VEC3"
		},
		{
			"bufferView":26,
			"componentType":5126,
			"count":776,
			"type":"VEC2"
		},
		{
			"bufferView":27,
			"componentType":5123,
			"count":3444,
			"type":"SCALAR"
		},
		{
			"bufferView":28,
			"componentType":5126,
			"count":287,
			"max":[
				0.16458852589130402,
				0.11380279064178467,
				0.16458635032176971
			],
			"min":[
				-0.16458843648433685,
				-0.3816874325275421,
				-0.16459061205387115
			],
			"type":"VEC3"
		},
		{
			"bufferView":29,
			"componentType":5126,
			"count":287,
			"type":"VEC3"
		},
		{
			"bufferView":30,
			"componentType":5126,
			"count":287,
			"type":"VEC2"
		},
		{
			"bufferView":31,
			"componentType":5123,
			"count":1440,
			"type":"SCALAR"
		},
		{
			"bufferView":32,
			"componentType":5126,
			"count":1920,
			"max":[
				1,
				1.2947015762329102,
				0.8012285828590393
			],
			"min":[
				-1,
				-1.294701337814331,
				0.27559933066368103
			],
			"type":"VEC3"
		},
		{
			"bufferView":33,
			"componentType":5126,
			"count":1920,
			"type":"VEC3"
		},
		{
			"bufferView":34,
			"componentType":5126,
			"count":1920,
			"type":"VEC2"
		},
		{
			"bufferView":35,
			"componentType":5123,
			"count":2904,
			"type":"SCALAR"
		},
		{
			"bufferView":36,
			"componentType":5126,
			"count":256,
			"max":[
				4,
				0.37201154232025146,
				4
			],
			"min":[
				-6.282855033874512,
				0,
				-2.008024215698242
			],
			"type":"VEC3"
		},
		{
			"bufferView":37,
			"componentType":5126,
			"count":256,
			"type":"VEC3"
		},
		{
			"bufferView":38,
			"componentType":5126,
			"count":256,
			"type":"VEC2"
		},
		{
			"bufferView":39,
			"componentType":5123,
			"count":480,
			"type":"SCALAR"
		},
		{
			"bufferView":40,
			"componentType":5126,
			"count":72,
			"max":[
				0.8908008933067322,
				2.3036978244781494,
				0.04116848111152649
			],
			"min":[
				-0.8908006548881531,
				0,
				-0.04116848111152649
			],
			"type":"VEC3"
		},
		{
			"bufferView":41,
			"componentType":5126,
			"count":72,
			"type":"VEC3"
		},
		{
			"bufferView":42,
			"componentType":5126,
			"count":72,
			"type":"VEC2"
		},
		{
			"bufferView":43,
			"componentType":5123,
			"count":108,
			"type":"SCALAR"
		},
		{
			"bufferView":44,
			"componentType":5126,
			"count":24,
			"max":[
				2.185333251953125,
				0.3032664954662323,
				1
			],
			"min":[
				-2.185333251953125,
				0,
				-1
			],
			"type":"VEC3"
		},
		{
			"bufferView":45,
			"componentType":5126,
			"count":24,
			"type":"VEC3"
		},
		{
			"bufferView":46,
			"componentType":5126,
			"count":24,
			"type":"VEC2"
		},
		{
			"bufferView":47,
			"componentType":5123,
			"count":36,
			"type":"SCALAR"
		},
		{
			"bufferView":48,
			"componentType":5126,
			"count":96,
			"max":[
				0.8032106161117554,
				-0.18614789843559265,
				0.23054590821266174
			],
			"min":[
				0.3621135652065277,
				-0.21911542117595673,
				-0.10288691520690918
			],
			"type":"VEC3"
		},
		{
			"bufferView":49,
			"componentType":5126,
			"count":96,
			"type":"VEC3"
		},
		{
			"bufferView":50,
			"componentType":5126,
			"count":96,
			"type":"VEC2"
		},
		{
			"bufferView":51,
			"componentType":5123,
			"count":564,
			"type":"SCALAR"
		}
	],
	"bufferViews":[
		{
			"buffer":0,
			"byteLength":288,
			"byteOffset":0,
			"target":34962
		},
		{
			"buffer":0,
			"byteLength":288,
			"byteOffset":288,
			"target":34962
		},
		{
			"buffer":0,
			"byteLength":192,
			"byteOffset":576,
			"target":34962
		},
		{
			"buffer":0,
			"byteLength":72,
			"byteOffset":768,
			"target":34963
		},
		{
			"buffer":0,
			"byteLength":2304,
			"byteOffset":840,
			"target":34962
		},
		{
			"buffer":0,
			"byteLength":2304,
			"byteOffset":3144,
			"target":34962
		},
		{
			"buffer":0,
			"byteLength":1536,
			"byteOffset":5448,
			"target":34962
		},
		{
			"buffer":0,
			"byteLength":744,
			"byteOffset":6984,
			"target":34963
		},
		{
			"buffer":0,
			"byteLength":576,
			"byteOffset":7728,
			"target":34962
		},
		{
			"buffer":0,
			"byteLength":576,
			"byteOffset":8304,
			"target":34962
		},
		{
			"buffer":0,
			"byteLength":384,
			"byteOffset":8880,
			"target":34962
		},
		{
			"buffer":0,
			"byteLength":168,
			"byteOffset":9264,
			"target":34963
		},
		{
			"buffer":0,
			"byteLength":576,
			"byteOffset":9432,
			"target":34962
		},
		{
			"buffer":0,
			"byteLength":576,
			"byteOffset":10008,
			"target":34962
		},
		{
			"buffer":0,
			"byteLength":384,
			"byteOffset":10584,
			"target":34962
		},
		{
			"buffer":0,
			"byteLength":168,
			"byteOffset":10968,
			"target":34963
		},
		{
			"buffer":0,
			"byteLength":66144,
			"byteOffset":11136,
			"target":34962
		},
		{
			"buffer":0,
			"byteLength":66144,
			"byteOffset":77280,
			"target":34962
		},
		{
			"buffer":0,
			"byteLength":44096,
			"byteOffset":143424,
			"target":34962
		},
		{
			"buffer":0,
			"byteLength":44304,
			"byteOffset":187520,
			"target":34963
		},
		{
			"buffer":0,
			"byteLength":5088,
			"byteOffset":231824,
			"target":34962
		},
		{
			"buffer":0,
			"byteLength":5088,
			"byteOffset":236912,
			"target":34962
		},
		{
			"buffer":0,
			"byteLength":3392,
			"byteOffset":242000,
			"target":34962
		},
		{
			"buffer":0,
			"byteLength":3408,
			"byteOffset":245392,
			"target":34963
		},
		{
			"buffer":0,
			"byteLength":9312,
			"byteOffset":248800,
			"target":34962
		},
		{
			"buffer":0,
			"byteLength":9312,
			"byteOffset":258112,
			"target":34962
		},
		{
			"buffer":0,
			"byteLength":6208,
			"byteOffset":267424,
			"target":34962
		},
		{
			"buffer":0,
			"byteLength":6888,
			"byteOffset":273632,
			"target":34963
		},
		{
			"buffer":0,
			"byteLength":3444,
			"byteOffset":280520,
			"target":34962
		},
		{
			"buffer":0,
			"byteLength":3444,
			"byteOffset":283964,
			"target":34962
		},
		{
			"buffer":0,
			"byteLength":2296,
			"byteOffset":287408,
			"target":34962
		},
		{
			"buffer":0,
			"byteLength":2880,
			"byteOffset":289704,
			"target":34963
		},
		{
			"buffer":0,
			"byteLength":23040,
			"byteOffset":292584,
			"target":34962
		},
		{
			"buffer":0,
			"byteLength":23040,
			"byteOffset":315624,
			"target":34962
		},
		{
			"buffer":0,
			"byteLength":15360,
			"byteOffset":338664,
			"target":34962
		},
		{
			"buffer":0,
			"byteLength":5808,
			"byteOffset":354024,
			"target":34963
		},
		{
			"buffer":0,
			"byteLength":3072,
			"byteOffset":359832,
			"target":34962
		},
		{
			"buffer":0,
			"byteLength":3072,
			"byteOffset":362904,
			"target":34962
		},
		{
			"buffer":0,
			"byteLength":2048,
			"byteOffset":365976,
			"target":34962
		},
		{
			"buffer":0,
			"byteLength":960,
			"byteOffset":368024,
			"target":34963
		},
		{
			"buffer":0,
			"byteLength":864,
			"byteOffset":368984,
			"target":34962
		},
		{
			"buffer":0,
			"byteLength":864,
			"byteOffset":369848,
			"target":34962
		},
		{
			"buffer":0,
			"byteLength":576,
			"byteOffset":370712,
			"target":34962
		},
		{
			"buffer":0,
			"byteLength":216,
			"byteOffset":371288,
			"target":34963
		},
		{
			"buffer":0,
			"byteLength":288,
			"byteOffset":371504,
			"target":34962
		},
		{
			"buffer":0,
			"byteLength":288,
			"byteOffset":371792,
			"target":34962
		},
		{
			"buffer":0,
			"byteLength":192,
			"byteOffset":372080,
			"target":34962
		},
		{
			"buffer":0,
			"byteLength":72,
			"byteOffset":372272,
			"target":34963
		},
		{
			"buffer":0,
			"byteLength":1152,
			"byteOffset":372344,
			"target":34962
		},
		{
			"buffer":0,
			"byteLength":1152,
			"byteOffset":373496,
			"target":34962
		},
		{
			"buffer":0,
			"byteLength":768,
			"byteOffset":374648,
			"target":34962
		},
		{
			"buffer":0,
			"byteLength":1128,
			"byteOffset":375416,
			"target":34963
		}
	],
	"buffers":[
		{
			"byteLength":376544,
			"uri":"data:application/octet-stream;base64,"
		}
	]
}
